ffmpeg started on 2025-04-30 at 18:14:03
Report written to "D:\Convert\FFMetrics\reports\psnr_report-6.txt"
Log level: 32
Command line:
ffmpeg -hide_banner -nostdin -i "G:\\\xc0\xed\xe8\xec\xe5\\\xce\xed\xe3\xee\xe8\xed\xe3\xe8\\!_35_\xcb\xe5\xf2\xee_2024\\JamClub\\\xcc\xe5\xf7 \xe8 \xe6\xe5\xe7\xeb \xc2\xe8\xf1\xf2\xee\xf0\xe8\xe8\\JamClub_Tsue_to_Tsurugi_no_Wistoria_08_1080p_HEVC.mkv" -i "G:\\\xc0\xed\xe8\xec\xe5\\\xce\xed\xe3\xee\xe8\xed\xe3\xe8\\!_35_\xcb\xe5\xf2\xee_2024\\JamClub\\\xcc\xe5\xf7 \xe8 \xe6\xe5\xe7\xeb \xc2\xe8\xf1\xf2\xee\xf0\xe8\xe8\\JamClub_Tsue_to_Tsurugi_no_Wistoria_08_1080p.mp4" -lavfi "[0:v]settb=AVTB,setpts=PTS-STARTPTS,format=pix_fmts=yuv420p10,fps=24000/1001,scale=1920:1080:flags=bicubic[main];[1:v]settb=AVTB,setpts=PTS-STARTPTS,format=pix_fmts=yuv420p,fps=24000/1001,scale=1920:1080:flags=bicubic[ref];[main][ref]psnr=eof_action=endall:stats_file='D\\:/Convert/FFMetrics/logs/psnr_logfile-6.txt'" -f null -
Input #0, matroska,webm, from 'G:\Аниме\Онгоинги\!_35_Лето_2024\JamClub\Меч и жезл Вистории\JamClub_Tsue_to_Tsurugi_no_Wistoria_08_1080p_HEVC.mkv':
  Metadata:
    COMPATIBLE_BRANDS: isomiso2avc1mp41
    MAJOR_BRAND     : isom
    MINOR_VERSION   : 512
    ENCODER         : Lavf61.7.100
  Duration: 00:24:08.41, start: -0.001000, bitrate: 1129 kb/s
  Stream #0:0: Video: hevc (Main 10), yuv420p10le(tv, bt709, progressive), 1920x1080 [SAR 1:1 DAR 16:9], 23.98 fps, 23.98 tbr, 1k tbn (default)
      Metadata:
        HANDLER_NAME    : VideoHandler
        VENDOR_ID       : [0][0][0][0]
        ENCODER         : Lavc61.19.100 libx265
        BPS             : 931953
        DURATION        : 00:24:08.321708333
        NUMBER_OF_FRAMES: 34726
        NUMBER_OF_BYTES : 168721019
        _STATISTICS_WRITING_APP: mkvpropedit v66.0.0 ('Josie') 64-bit
        _STATISTICS_WRITING_DATE_UTC: 2025-04-29 12:57:29
        _STATISTICS_TAGS: BPS DURATION NUMBER_OF_FRAMES NUMBER_OF_BYTES
  Stream #0:1(eng): Audio: aac (LC), 48000 Hz, stereo, fltp (default)
      Metadata:
        HANDLER_NAME    : SoundHandler
        VENDOR_ID       : [0][0][0][0]
        ENCODER         : Lavc61.19.100 aac
        BPS             : 193344
        DURATION        : 00:24:08.365000000
        NUMBER_OF_FRAMES: 67893
        NUMBER_OF_BYTES : 35004236
        _STATISTICS_WRITING_APP: mkvpropedit v66.0.0 ('Josie') 64-bit
        _STATISTICS_WRITING_DATE_UTC: 2025-04-29 12:57:29
        _STATISTICS_TAGS: BPS DURATION NUMBER_OF_FRAMES NUMBER_OF_BYTES
Input #1, mov,mp4,m4a,3gp,3g2,mj2, from 'G:\Аниме\Онгоинги\!_35_Лето_2024\JamClub\Меч и жезл Вистории\JamClub_Tsue_to_Tsurugi_no_Wistoria_08_1080p.mp4':
  Metadata:
    major_brand     : isom
    minor_version   : 512
    compatible_brands: isomiso2avc1mp41
    encoder         : Lavf60.16.100
  Duration: 00:24:08.39, start: 0.000000, bitrate: 3696 kb/s
  Stream #1:0[0x1](und): Video: h264 (High) (avc1 / 0x31637661), yuv420p(progressive), 1920x1080 [SAR 1:1 DAR 16:9], 3498 kb/s, 23.98 fps, 23.98 tbr, 90k tbn (default)
      Metadata:
        handler_name    : VideoHandler
        vendor_id       : [0][0][0][0]
  Stream #1:1[0x2](eng): Audio: aac (LC) (mp4a / 0x6134706D), 48000 Hz, stereo, fltp, 191 kb/s (default)
      Metadata:
        handler_name    : SoundHandler
        vendor_id       : [0][0][0][0]
Stream mapping:
  Stream #0:0 (hevc) -> settb:default
  Stream #1:0 (h264) -> settb:default
  psnr:default -> Stream #0:0 (wrapped_avframe)
  Stream #0:1 -> #0:1 (aac (native) -> pcm_s16le (native))
Output #0, null, to 'pipe:':
  Metadata:
    COMPATIBLE_BRANDS: isomiso2avc1mp41
    MAJOR_BRAND     : isom
    MINOR_VERSION   : 512
    encoder         : Lavf61.7.100
  Stream #0:0: Video: wrapped_avframe, yuv420p10le(tv, bt709, progressive), 1920x1080 [SAR 1:1 DAR 16:9], q=2-31, 200 kb/s, 23.98 fps, 23.98 tbn
      Metadata:
        encoder         : Lavc61.19.100 wrapped_avframe
  Stream #0:1(eng): Audio: pcm_s16le, 48000 Hz, stereo, s16, 1536 kb/s (default)
      Metadata:
        HANDLER_NAME    : SoundHandler
        VENDOR_ID       : [0][0][0][0]
        _STATISTICS_TAGS: BPS DURATION NUMBER_OF_FRAMES NUMBER_OF_BYTES
        BPS             : 193344
        DURATION        : 00:24:08.365000000
        NUMBER_OF_FRAMES: 67893
        NUMBER_OF_BYTES : 35004236
        _STATISTICS_WRITING_APP: mkvpropedit v66.0.0 ('Josie') 64-bit
        _STATISTICS_WRITING_DATE_UTC: 2025-04-29 12:57:29
        encoder         : Lavc61.19.100 pcm_s16le
frame=  110 fps=0.0 q=-0.0 size=N/A time=00:00:04.58 bitrate=N/A speed=8.82x    frame=  267 fps=259 q=-0.0 size=N/A time=00:00:11.13 bitrate=N/A speed=10.8x    frame=  459 fps=298 q=-0.0 size=N/A time=00:00:19.14 bitrate=N/A speed=12.4x    frame=  701 fps=340 q=-0.0 size=N/A time=00:00:29.23 bitrate=N/A speed=14.2x    frame=  902 fps=351 q=-0.0 size=N/A time=00:00:37.62 bitrate=N/A speed=14.6x    frame= 1141 fps=369 q=-0.0 size=N/A time=00:00:47.58 bitrate=N/A speed=15.4x    frame= 1412 fps=392 q=-0.0 size=N/A time=00:00:58.89 bitrate=N/A speed=16.4x    frame= 1639 fps=397 q=-0.0 size=N/A time=00:01:08.35 bitrate=N/A speed=16.6x    frame= 1888 fps=407 q=-0.0 size=N/A time=00:01:18.74 bitrate=N/A speed=  17x    frame= 2158 fps=418 q=-0.0 size=N/A time=00:01:30.00 bitrate=N/A speed=17.4x    frame= 2407 fps=424 q=-0.0 size=N/A time=00:01:40.39 bitrate=N/A speed=17.7x    frame= 2657 fps=430 q=-0.0 size=N/A time=00:01:50.81 bitrate=N/A speed=17.9x    frame= 2916 fps=435 q=-0.0 size=N/A time=00:02:01.62 bitrate=N/A speed=18.1x    frame= 3140 fps=435 q=-0.0 size=N/A time=00:02:10.96 bitrate=N/A speed=18.2x    frame= 3393 fps=439 q=-0.0 size=N/A time=00:02:21.51 bitrate=N/A speed=18.3x    frame= 3649 fps=443 q=-0.0 size=N/A time=00:02:32.19 bitrate=N/A speed=18.5x    frame= 3902 fps=445 q=-0.0 size=N/A time=00:02:42.74 bitrate=N/A speed=18.6x    frame= 4129 fps=445 q=-0.0 size=N/A time=00:02:52.21 bitrate=N/A speed=18.6x    frame= 4345 fps=444 q=-0.0 size=N/A time=00:03:01.22 bitrate=N/A speed=18.5x    frame= 4570 fps=443 q=-0.0 size=N/A time=00:03:10.60 bitrate=N/A speed=18.5x    frame= 4762 fps=440 q=-0.0 size=N/A time=00:03:18.61 bitrate=N/A speed=18.4x    frame= 4944 fps=436 q=-0.0 size=N/A time=00:03:26.20 bitrate=N/A speed=18.2x    frame= 5141 fps=434 q=-0.0 size=N/A time=00:03:34.42 bitrate=N/A speed=18.1x    frame= 5305 fps=429 q=-0.0 size=N/A time=00:03:41.26 bitrate=N/A speed=17.9x    frame= 5477 fps=425 q=-0.0 size=N/A time=00:03:48.43 bitrate=N/A speed=17.7x    frame= 5675 fps=424 q=-0.0 size=N/A time=00:03:56.69 bitrate=N/A speed=17.7x    frame= 5890 fps=423 q=-0.0 size=N/A time=00:04:05.66 bitrate=N/A speed=17.6x    frame= 6123 fps=424 q=-0.0 size=N/A time=00:04:15.38 bitrate=N/A speed=17.7x    frame= 6337 fps=424 q=-0.0 size=N/A time=00:04:24.30 bitrate=N/A speed=17.7x    frame= 6596 fps=427 q=-0.0 size=N/A time=00:04:35.10 bitrate=N/A speed=17.8x    frame= 6854 fps=429 q=-0.0 size=N/A time=00:04:45.86 bitrate=N/A speed=17.9x    frame= 7125 fps=431 q=-0.0 size=N/A time=00:04:57.17 bitrate=N/A speed=  18x    frame= 7378 fps=433 q=-0.0 size=N/A time=00:05:07.72 bitrate=N/A speed=18.1x    frame= 7640 fps=436 q=-0.0 size=N/A time=00:05:18.65 bitrate=N/A speed=18.2x    frame= 7876 fps=436 q=-0.0 size=N/A time=00:05:28.49 bitrate=N/A speed=18.2x    frame= 8105 fps=436 q=-0.0 size=N/A time=00:05:38.04 bitrate=N/A speed=18.2x    frame= 8330 fps=436 q=-0.0 size=N/A time=00:05:47.43 bitrate=N/A speed=18.2x    frame= 8580 fps=438 q=-0.0 size=N/A time=00:05:57.85 bitrate=N/A speed=18.3x    frame= 8825 fps=439 q=-0.0 size=N/A time=00:06:08.11 bitrate=N/A speed=18.3x    frame= 9105 fps=441 q=-0.0 size=N/A time=00:06:19.75 bitrate=N/A speed=18.4x    frame= 9359 fps=442 q=-0.0 size=N/A time=00:06:30.34 bitrate=N/A speed=18.5x    frame= 9623 fps=444 q=-0.0 size=N/A time=00:06:41.35 bitrate=N/A speed=18.5x    frame= 9851 fps=444 q=-0.0 size=N/A time=00:06:50.86 bitrate=N/A speed=18.5x    frame=10082 fps=444 q=-0.0 size=N/A time=00:07:00.50 bitrate=N/A speed=18.5x    frame=10363 fps=446 q=-0.0 size=N/A time=00:07:12.22 bitrate=N/A speed=18.6x    frame=10634 fps=448 q=-0.0 size=N/A time=00:07:23.52 bitrate=N/A speed=18.7x    frame=10890 fps=449 q=-0.0 size=N/A time=00:07:34.20 bitrate=N/A speed=18.7x    frame=11171 fps=451 q=-0.0 size=N/A time=00:07:45.92 bitrate=N/A speed=18.8x    frame=11437 fps=452 q=-0.0 size=N/A time=00:07:57.01 bitrate=N/A speed=18.9x    frame=11670 fps=453 q=-0.0 size=N/A time=00:08:06.73 bitrate=N/A speed=18.9x    frame=11935 fps=454 q=-0.0 size=N/A time=00:08:17.78 bitrate=N/A speed=18.9x    frame=12179 fps=454 q=-0.0 size=N/A time=00:08:27.96 bitrate=N/A speed=18.9x    frame=12440 fps=455 q=-0.0 size=N/A time=00:08:38.85 bitrate=N/A speed=  19x    frame=12705 fps=456 q=-0.0 size=N/A time=00:08:49.90 bitrate=N/A speed=  19x    frame=12966 fps=457 q=-0.0 size=N/A time=00:09:00.79 bitrate=N/A speed=  19x    frame=13241 fps=458 q=-0.0 size=N/A time=00:09:12.26 bitrate=N/A speed=19.1x    frame=13517 fps=459 q=-0.0 size=N/A time=00:09:23.77 bitrate=N/A speed=19.2x    frame=13772 fps=460 q=-0.0 size=N/A time=00:09:34.40 bitrate=N/A speed=19.2x    frame=14024 fps=460 q=-0.0 size=N/A time=00:09:44.91 bitrate=N/A speed=19.2x    frame=14263 fps=461 q=-0.0 size=N/A time=00:09:54.88 bitrate=N/A speed=19.2x    frame=14508 fps=461 q=-0.0 size=N/A time=00:10:05.14 bitrate=N/A speed=19.2x    frame=14780 fps=462 q=-0.0 size=N/A time=00:10:16.44 bitrate=N/A speed=19.3x    frame=15030 fps=462 q=-0.0 size=N/A time=00:10:26.87 bitrate=N/A speed=19.3x    frame=15287 fps=463 q=-0.0 size=N/A time=00:10:37.59 bitrate=N/A speed=19.3x    frame=15556 fps=464 q=-0.0 size=N/A time=00:10:48.81 bitrate=N/A speed=19.3x    frame=15761 fps=463 q=-0.0 size=N/A time=00:10:57.36 bitrate=N/A speed=19.3x    frame=16002 fps=463 q=-0.0 size=N/A time=00:11:07.41 bitrate=N/A speed=19.3x    frame=16262 fps=463 q=-0.0 size=N/A time=00:11:18.26 bitrate=N/A speed=19.3x    frame=16523 fps=464 q=-0.0 size=N/A time=00:11:29.14 bitrate=N/A speed=19.4x    frame=16776 fps=464 q=-0.0 size=N/A time=00:11:39.69 bitrate=N/A speed=19.4x    frame=17045 fps=465 q=-0.0 size=N/A time=00:11:50.91 bitrate=N/A speed=19.4x    frame=17315 fps=466 q=-0.0 size=N/A time=00:12:02.17 bitrate=N/A speed=19.4x    frame=17577 fps=466 q=-0.0 size=N/A time=00:12:13.10 bitrate=N/A speed=19.5x    frame=17826 fps=467 q=-0.0 size=N/A time=00:12:23.49 bitrate=N/A speed=19.5x    frame=18093 fps=467 q=-0.0 size=N/A time=00:12:34.62 bitrate=N/A speed=19.5x    frame=18324 fps=467 q=-0.0 size=N/A time=00:12:44.26 bitrate=N/A speed=19.5x    frame=18620 fps=468 q=-0.0 size=N/A time=00:12:56.60 bitrate=N/A speed=19.5x    frame=18898 fps=469 q=-0.0 size=N/A time=00:13:08.20 bitrate=N/A speed=19.6x    frame=19169 fps=470 q=-0.0 size=N/A time=00:13:19.50 bitrate=N/A speed=19.6x    frame=19373 fps=469 q=-0.0 size=N/A time=00:13:28.01 bitrate=N/A speed=19.6x    frame=19617 fps=469 q=-0.0 size=N/A time=00:13:38.19 bitrate=N/A speed=19.6x    frame=19870 fps=470 q=-0.0 size=N/A time=00:13:48.74 bitrate=N/A speed=19.6x    frame=20136 fps=470 q=-0.0 size=N/A time=00:13:59.83 bitrate=N/A speed=19.6x    frame=20408 fps=471 q=-0.0 size=N/A time=00:14:11.18 bitrate=N/A speed=19.6x    frame=20651 fps=471 q=-0.0 size=N/A time=00:14:21.31 bitrate=N/A speed=19.6x    frame=20921 fps=471 q=-0.0 size=N/A time=00:14:32.58 bitrate=N/A speed=19.7x    frame=21145 fps=471 q=-0.0 size=N/A time=00:14:41.92 bitrate=N/A speed=19.6x    frame=21300 fps=469 q=-0.0 size=N/A time=00:14:48.38 bitrate=N/A speed=19.6x    frame=21550 fps=469 q=-0.0 size=N/A time=00:14:58.81 bitrate=N/A speed=19.6x    frame=21815 fps=470 q=-0.0 size=N/A time=00:15:09.86 bitrate=N/A speed=19.6x    frame=22065 fps=470 q=-0.0 size=N/A time=00:15:20.29 bitrate=N/A speed=19.6x    frame=22247 fps=469 q=-0.0 size=N/A time=00:15:27.88 bitrate=N/A speed=19.5x    frame=22482 fps=468 q=-0.0 size=N/A time=00:15:37.68 bitrate=N/A speed=19.5x    frame=22749 fps=469 q=-0.0 size=N/A time=00:15:48.82 bitrate=N/A speed=19.6x    frame=23013 fps=469 q=-0.0 size=N/A time=00:15:59.83 bitrate=N/A speed=19.6x    frame=23290 fps=470 q=-0.0 size=N/A time=00:16:11.38 bitrate=N/A speed=19.6x    frame=23568 fps=471 q=-0.0 size=N/A time=00:16:22.98 bitrate=N/A speed=19.6x    frame=23838 fps=471 q=-0.0 size=N/A time=00:16:34.24 bitrate=N/A speed=19.7x    frame=24070 fps=471 q=-0.0 size=N/A time=00:16:43.91 bitrate=N/A speed=19.6x    frame=24282 fps=471 q=-0.0 size=N/A time=00:16:52.76 bitrate=N/A speed=19.6x    frame=24520 fps=470 q=-0.0 size=N/A time=00:17:02.68 bitrate=N/A speed=19.6x    frame=24784 fps=471 q=-0.0 size=N/A time=00:17:13.69 bitrate=N/A speed=19.6x    frame=25061 fps=471 q=-0.0 size=N/A time=00:17:25.25 bitrate=N/A speed=19.7x    frame=25330 fps=472 q=-0.0 size=N/A time=00:17:36.47 bitrate=N/A speed=19.7x    frame=25613 fps=473 q=-0.0 size=N/A time=00:17:48.27 bitrate=N/A speed=19.7x    frame=25845 fps=472 q=-0.0 size=N/A time=00:17:57.95 bitrate=N/A speed=19.7x    frame=26086 fps=472 q=-0.0 size=N/A time=00:18:08.00 bitrate=N/A speed=19.7x    frame=26334 fps=472 q=-0.0 size=N/A time=00:18:18.34 bitrate=N/A speed=19.7x    frame=26589 fps=473 q=-0.0 size=N/A time=00:18:28.98 bitrate=N/A speed=19.7x    frame=26789 fps=472 q=-0.0 size=N/A time=00:18:37.32 bitrate=N/A speed=19.7x    frame=27048 fps=472 q=-0.0 size=N/A time=00:18:48.12 bitrate=N/A speed=19.7x    frame=27315 fps=472 q=-0.0 size=N/A time=00:18:59.26 bitrate=N/A speed=19.7x    frame=27588 fps=473 q=-0.0 size=N/A time=00:19:10.64 bitrate=N/A speed=19.7x    frame=27825 fps=473 q=-0.0 size=N/A time=00:19:20.53 bitrate=N/A speed=19.7x    frame=28102 fps=473 q=-0.0 size=N/A time=00:19:32.08 bitrate=N/A speed=19.7x    frame=28360 fps=474 q=-0.0 size=N/A time=00:19:42.89 bitrate=N/A speed=19.8x    frame=28635 fps=474 q=-0.0 size=N/A time=00:19:54.31 bitrate=N/A speed=19.8x    frame=28904 fps=475 q=-0.0 size=N/A time=00:20:05.53 bitrate=N/A speed=19.8x    frame=29174 fps=475 q=-0.0 size=N/A time=00:20:16.79 bitrate=N/A speed=19.8x    frame=29458 fps=476 q=-0.0 size=N/A time=00:20:28.64 bitrate=N/A speed=19.8x    frame=29725 fps=476 q=-0.0 size=N/A time=00:20:39.78 bitrate=N/A speed=19.9x    frame=29963 fps=476 q=-0.0 size=N/A time=00:20:49.70 bitrate=N/A speed=19.8x    frame=30241 fps=476 q=-0.0 size=N/A time=00:21:01.30 bitrate=N/A speed=19.9x    frame=30520 fps=477 q=-0.0 size=N/A time=00:21:12.93 bitrate=N/A speed=19.9x    frame=30765 fps=477 q=-0.0 size=N/A time=00:21:23.15 bitrate=N/A speed=19.9x    frame=31044 fps=477 q=-0.0 size=N/A time=00:21:34.79 bitrate=N/A speed=19.9x    frame=31305 fps=478 q=-0.0 size=N/A time=00:21:45.67 bitrate=N/A speed=19.9x    frame=31553 fps=478 q=-0.0 size=N/A time=00:21:56.02 bitrate=N/A speed=19.9x    frame=31802 fps=478 q=-0.0 size=N/A time=00:22:06.40 bitrate=N/A speed=19.9x    frame=32029 fps=477 q=-0.0 size=N/A time=00:22:15.87 bitrate=N/A speed=19.9x    frame=32276 fps=477 q=-0.0 size=N/A time=00:22:26.17 bitrate=N/A speed=19.9x    frame=32511 fps=477 q=-0.0 size=N/A time=00:22:35.97 bitrate=N/A speed=19.9x    frame=32726 fps=477 q=-0.0 size=N/A time=00:22:44.94 bitrate=N/A speed=19.9x    frame=32960 fps=477 q=-0.0 size=N/A time=00:22:54.70 bitrate=N/A speed=19.9x    frame=33179 fps=476 q=-0.0 size=N/A time=00:23:03.84 bitrate=N/A speed=19.9x    frame=33367 fps=475 q=-0.0 size=N/A time=00:23:11.68 bitrate=N/A speed=19.8x    frame=33574 fps=475 q=-0.0 size=N/A time=00:23:20.31 bitrate=N/A speed=19.8x    frame=33831 fps=475 q=-0.0 size=N/A time=00:23:31.03 bitrate=N/A speed=19.8x    frame=34085 fps=475 q=-0.0 size=N/A time=00:23:41.62 bitrate=N/A speed=19.8x    frame=34338 fps=475 q=-0.0 size=N/A time=00:23:52.18 bitrate=N/A speed=19.8x    frame=34573 fps=475 q=-0.0 size=N/A time=00:24:01.98 bitrate=N/A speed=19.8x    [Parsed_psnr_10 @ 0000019655199680] PSNR y:48.621998 u:50.566207 v:50.641434 average:49.187667 min:37.702043 max:inf
[out#0/null @ 00000196547eeb00] video:14921KiB audio:271572KiB subtitle:0KiB other streams:0KiB global headers:0KiB muxing overhead: unknown
frame=34725 fps=475 q=-0.0 Lsize=N/A time=00:24:08.32 bitrate=N/A speed=19.8x    
